<svg width="29" height="29" viewBox="0 0 29 29" fill="none" xmlns="http://www.w3.org/2000/svg">
<path fill-rule="evenodd" clip-rule="evenodd" d="M10.5 5.45398C7.18629 5.45398 4.5 8.14027 4.5 11.454V19.1992C4.5 22.5129 7.18629 25.1992 10.5 25.1992H18.2452C21.5589 25.1992 24.2452 22.5129 24.2452 19.1992V11.454C24.2452 8.14027 21.5589 5.45398 18.2452 5.45398H10.5ZM8.77034 16.8466L13.1122 15.6275V16.5872C13.1122 17.6339 14.1573 18.3588 15.1377 17.9921L19.8503 16.2296C20.3676 16.0361 20.6301 15.4599 20.4366 14.9426C20.2432 14.4253 19.667 14.1628 19.1497 14.3563L15.1122 15.8663V14.9677C15.1122 13.974 14.1635 13.2549 13.2067 13.5236L8.22966 14.9211C7.69794 15.0704 7.38793 15.6225 7.53724 16.1542C7.68654 16.6859 8.23862 16.996 8.77034 16.8466Z" fill="black"/>
<path d="M11.7969 3.30798L14.3723 5.88344L16.9478 3.30798" stroke="black" stroke-width="2" stroke-linecap="round"/>
</svg>
