<svg width="29" height="29" viewBox="0 0 29 29" fill="none" xmlns="http://www.w3.org/2000/svg">
<path d="M4.5 7.71295C4.5 7.16067 4.94772 6.71295 5.5 6.71295H11.6135C12.1481 6.71295 12.6605 6.49892 13.0362 6.11862L14.5915 4.54449L16.0377 6.08286C16.4157 6.48493 16.9431 6.71295 17.4949 6.71295H23.5C24.0523 6.71295 24.5 7.16067 24.5 7.71295V23.713C24.5 24.2652 24.0523 24.713 23.5 24.713H5.5C4.94771 24.713 4.5 24.2652 4.5 23.713V7.71295Z" stroke="black" stroke-width="2"/>
<circle cx="14.5" cy="13.6348" r="3.5" stroke="black" stroke-width="2"/>
<path d="M12.2188 19.963H17.125C19.3341 19.963 21.125 21.7538 21.125 23.963V24.713H8.21875V23.963C8.21875 21.7538 10.0096 19.963 12.2188 19.963Z" stroke="black" stroke-width="2"/>
</svg>
